# AST/ASF file generated using VICON BodyLanguage
# -----------------------------------------------
:version 1.10
:name VICON
:units
  mass 1.0
  length 0.45
  angle deg
:documentation
   .ast/.asf automatically generated from VICON data using
   VICON BodyBuilder and BodyLanguage model FoxedUp or BRILLIANT.MOD
:root
   order TX TY TZ RX RY RZ
   axis XYZ
   position 0 0 0  
   orientation 0 0 0 
:bonedata
  begin
     id 1 
     name lhipjoint
     direction 0.535335 -0.74333 0.401095 
     length 2.04549 
     axis 0 0 0  XYZ
  end
  begin
     id 2 
     name lfemur
     direction 0.34202 -0.939693 0  
     length 6.95643  
     axis 0 0 20  XYZ
    dof rx ry rz
    limits (-160.0 20.0)
           (-70.0 70.0)
           (-60.0 70.0)
  end
  begin
     id 3 
     name ltibia
     direction 0.34192 -0.939729 0   
     length 5.55969   
     axis 0 0 20   XYZ
    dof rx
    limits (-10.0 170.0)
  end
  begin
     id 4 
     name lfoot
     direction 0.216943 -0.596046 0.773088   
     length 2.27918   
     axis -90 7.62852e-016 20   XYZ
    dof rx rz
    limits (-45.0 90.0)
           (-70.0 20.0)
  end
  begin
     id 5 
     name ltoes
     direction 1.53519e-011 -4.21748e-011 1   
     length 1.05562   
     axis -90 7.62852e-016 20   XYZ
    dof rx
    limits (-90.0 20.0)
  end
  begin
     id 6 
     name rhipjoint
     direction -0.576368 -0.719173 0.38806   
     length 2.1142  
     axis 0 0 0  XYZ 
  end
  begin
     id 7 
     name rfemur
     direction -0.34202 -0.939693 0   
     length 7.07928   
     axis 0 0 -20   XYZ
    dof rx ry rz
    limits (-160.0 20.0)
           (-70.0 70.0)
           (-70.0 60.0)
  end
  begin
     id 8 
     name rtibia
     direction -0.34202 -0.939693 0   
     length 5.79974   
     axis 0 0 -20   XYZ
    dof rx
    limits (-10.0 170.0)
 end
 begin
     id 9 
     name rfoot
     direction -0.189288 -0.520065 0.832888   
     length 2.42173  
     axis -90 -7.62852e-016 -20   XYZ
    dof rx rz
    limits (-45.0 90.0)
           (-20.0 70.0)
  end
  begin
     id 10 
     name rtoes
     direction -1.53574e-011 -4.21658e-011 1   
     length 1.14469   
     axis -90 -7.62852e-016 -20   XYZ
    dof rx
    limits (-90.0 20.0)
  end
  begin
     id 11 
     name lowerback
     direction -0.00135702 0.993803 0.111144   
     length 1.91308   
     axis 0 0 0   XYZ
    dof rx ry rz
    limits (-20.0 45.0)
           (-30.0 30.0)
           (-30.0 30.0)
  end
  begin
     id 12 
     name upperback
     direction -0.0056745 0.999813 0.0184631   
     length 1.9212   
     axis 0 0 0   XYZ
    dof rx ry rz
    limits (-20.0 45.0)
           (-30.0 30.0)
           (-30.0 30.0)
  end
  begin
     id 13 
     name thorax
     direction -0.00733434 0.999426 -0.0330788   
     length 1.94196   
     axis 0 0 0   XYZ
    dof rx ry rz
    limits (-20.0 45.0)
           (-30.0 30.0)
           (-30.0 30.0)
  end
  begin
     id 14 
     name lowerneck
     direction 0.0563074 0.996944 -0.0541571   
     length 2.34257   
     axis 0 0 0   XYZ
    dof rx ry rz
    limits (-20.0 45.0)
           (-30.0 30.0)
           (-30.0 30.0)
  end
  begin
     id 15 
     name upperneck
     direction -0.0544519 0.976166 -0.210085   
     length 2.32506   
     axis 0 0 0   XYZ
    dof rx ry rz
    limits (-20.0 45.0)
           (-30.0 30.0)
           (-30.0 30.0)
  end
  begin
     id 16
     name head
     direction -0.0226035 0.997615 -0.0652205  
     length 2.3648  
     axis 0 0 0   XYZ
    dof rx ry rz
    limits (-20.0 45.0)
           (-30.0 30.0)
           (-30.0 30.0)
  end
  begin
     id 17 
     name lclavicle
     direction 0.92109 0.381297 -0.0787716  
     length 4.0487  
     axis 0 0 0   XYZ
    dof ry rz
    limits (-20.0 10.0)
           (0.0 20.0)
  end
  begin
     id 18 
     name lhumerus
     direction 1 -4.48986e-011 3.56724e-027   
     length 4.94991   
     axis 180 -30 -90   XYZ
    dof rx ry rz
    limits (-60.0 90.0)
           (-90.0 90.0)
           (-90.0 90.0)
  end
  begin
     id 19
     name lradius
     direction 1 -4.48981e-011 8.62147e-027   
     length 2.7606   
     axis 180 -30 -90   XYZ
    dof rx
    limits (-10.0 170.0)
  end
  begin
     id 20
     name lwrist
     direction 1 -4.48989e-011 1.59799e-026   
     length 1.3803   
     axis -1.17785e-014 90 90   XYZ
    dof ry
    limits (-180.0 0.0)
 end
  begin
     id 21 
     name lhand
     direction 1 -4.48896e-011 3.19599e-026   
     length 0.843936   
     axis -2.03931e-014 90 90   XYZ
    dof rx rz
    limits (-90.0 90.0)
           (-45.0 45.0)
  end
  begin
     id 22 
     name lfingers
     direction 1 -4.48887e-011 6.39197e-026   
     length 0.680403   
     axis -4.07862e-014 90 90   XYZ
    dof rx
    limits (0.0 90.0)
  end
  begin
     id 23
     name lthumb
     direction 0.707107 -6.348e-011 0.707107   
     length 0.976926   
     axis -90 45 2.85299e-015   XYZ
    dof rx rz
    limits (-45.0 45.0)
           (-45.0 45.0)
  end
  begin
     id 24 
     name rclavicle
     direction -0.951104 0.307692 -0.026953   
     length 4.21801  
     axis 0 0 0   XYZ 
    dof ry rz
    limits (-10.0 20.0)
           (-20.0 0.0)
  end
  begin
     id 25 
     name rhumerus
     direction -1 -4.4896e-011 -1.8171e-018  
     length 4.32982   
     axis 180 30 90   XYZ
    dof rx ry rz
    limits (-90.0 60.0)
           (-90.0 90.0)
           (-90.0 90.0)
  end
  begin
     id 26 
     name rradius
     direction -1 -4.48959e-011 8.25165e-027   
     length 3.20057   
     axis 180 30 90   XYZ
    dof rx
    limits (-10.0 170.0)
  end
  begin
     id 27 
     name rwrist
     direction -1 -4.48997e-011 1.59799e-026   
     length 1.60029   
     axis -1.17785e-014 -90 -90   XYZ
    dof ry
    limits (-180.0 0.0)
  end
  begin
     id 28
     name rhand
     direction -1 -4.49023e-011 3.19599e-026   
     length 0.960433   
     axis -2.03931e-014 -90 -90   XYZ
    dof rx rz
    limits (-90.0 90.0)
           (-45.0 45.0)
  end
  begin
     id 29
     name rfingers
     direction -1 -4.48802e-011 6.39197e-026   
     length 0.774326   
     axis -4.07862e-014 -90 -90   XYZ
    dof rx
    limits (0.0 90.0)
  end
  begin
     id 30
     name rthumb
     direction -0.707107 -6.34876e-011 0.707107   
     length 1.11178   
     axis -90 -45 -2.85299e-015   XYZ
    dof rx rz
    limits (-45.0 45.0)
           (-45.0 45.0)
  end
:hierarchy
  begin
    root lhipjoint rhipjoint lowerback
    lhipjoint lfemur
    lfemur ltibia
    ltibia lfoot
    lfoot ltoes
    rhipjoint rfemur
    rfemur rtibia
    rtibia rfoot
    rfoot rtoes
    lowerback upperback
    upperback thorax
    thorax lowerneck lclavicle rclavicle
    lowerneck upperneck
    upperneck head
    lclavicle lhumerus
    lhumerus lradius
    lradius lwrist
    lwrist lhand lthumb
    lhand lfingers
    rclavicle rhumerus
    rhumerus rradius
    rradius rwrist
    rwrist rhand rthumb
    rhand rfingers
end

#!OML:ASF C:\KaitlinTest1\Natural Motions\Nikki\Session 2\Nikki.ASF
:FULLY-SPECIFIED
:DEGREES
1
root -18.9671 16.6331 5.04132 -156.751 85.2016 -166.357
lowerback -13.0937 -1.57786 0.548446
upperback -3.98652 -1.95934 -0.54316
thorax 3.10981 -0.897764 -1.17408
lowerneck -1.66365 1.83651 8.51002
upperneck 27.0063 4.14988 -5.43034
head 8.96749 2.69993 -2.93028
rclavicle 1.11816e-014 -5.96354e-015
rhumerus -42.4392 -23.3114 -78.3198
rradius 18.0817
rwrist 30.0941
rhand -35.6494 3.00948
rfingers 7.12502
rthumb -8.7715 -26.7883
lclavicle 1.11816e-014 -5.96354e-015
lhumerus -42.1633 16.4683 80.3178
lradius 23.9796
lwrist -40.5819
lhand -32.9699 2.62261
lfingers 7.12502
lthumb -6.18517 32.5123
rfemur -7.62971 -16.6732 20.9591
rtibia 11.1548
rfoot -10.3718 11.3066
rtoes 2.78299e-014
lfemur -10.2146 11.9418 -17.9597
ltibia 10.0727
lfoot -1.98781 -17.2755
ltoes 3.81667e-014
2
root -18.9666 16.6331 5.0413 -156.629 85.2208 -166.24
lowerback -13.1038 -1.57399 0.555538
upperback -3.98972 -1.95506 -0.540057
thorax 3.11195 -0.89553 -1.17442
lowerneck -1.66311 1.84323 8.51119
upperneck 27.0184 4.16269 -5.43739
head 8.97281 2.70591 -2.93193
rclavicle -2.93207e-014 -2.10712e-014
rhumerus -42.4165 -23.1779 -78.3962
rradius 18.1031
rwrist 30.003
rhand -35.6454 2.96184
rfingers 7.12502
rthumb -8.76759 -26.8361
lclavicle -2.93207e-014 -2.10712e-014
lhumerus -42.1524 16.4907 80.3005
lradius 23.9351
lwrist -40.6277
lhand -33.0089 2.60019
lfingers 7.12502
lthumb -6.22283 32.4888
rfemur -7.62211 -16.6534 20.9619
rtibia 11.1286
rfoot -10.3512 11.3086
rtoes -3.81667e-014
lfemur -10.2228 11.9843 -17.9591
ltibia 10.0855
lfoot -2.03085 -17.2918
ltoes -3.49861e-014
3
root -18.9668 16.6334 5.04149 -156.507 85.2447 -166.116
lowerback -13.1144 -1.56668 0.557025
upperback -3.96835 -1.94665 -0.539366
thorax 3.14018 -0.891509 -1.17397
lowerneck -1.69362 1.8524 8.51716
upperneck 26.9999 4.1708 -5.44632
head 8.97288 2.70757 -2.93495
rclavicle -1.16041e-014 -9.54166e-015
rhumerus -42.3555 -23.1647 -78.4141
rradius 18.0829
rwrist 30.1254
rhand -35.661 3.00349
rfingers 7.12502
rthumb -8.78264 -26.7938
lclavicle -1.16041e-014 -9.54166e-015
lhumerus -42.0791 16.4525 80.3328
lradius 23.9215
lwrist -40.5792
lhand -32.9966 2.60708
lfingers 7.12502
lthumb -6.21095 32.496
rfemur -7.61894 -16.6463 20.9631
rtibia 11.1246
rfoot -10.3647 11.3262
rtoes -9.54166e-015
lfemur -10.2218 11.993 -17.954
ltibia 10.0959
lfoot -2.03505 -17.2754
ltoes -1.43125e-014
4
root -18.967 16.6336 5.04166 -156.465 85.2685 -166.076
lowerback -13.131 -1.56355 0.554074
upperback -3.95545 -1.9428 -0.536315
thorax 3.16301 -0.889593 -1.16928
lowerneck -1.67186 1.84664 8.51746
upperneck 26.9424 4.1746 -5.51106
head 8.94958 2.70185 -2.95706
rclavicle -1.93815e-015 -2.78299e-015
rhumerus -42.31 -23.0717 -78.4811
rradius 18.0981
rwrist 30.0733
rhand -35.669 3.02323
rfingers 7.12502
rthumb -8.79037 -26.7737
lclavicle -1.93815e-015 -2.78299e-015
lhumerus -42.0613 16.5135 80.3058
lradius 23.9174
lwrist -40.6633
lhand -32.5536 3.37914
lfingers 7.12502
lthumb -5.78326 33.2802
rfemur -7.62171 -16.6105 20.96
rtibia 11.1171
rfoot -10.3624 11.3174
rtoes -5.48646e-014
lfemur -10.2244 11.9931 -17.9565
ltibia 10.1046
lfoot -2.03506 -17.2594
ltoes -1.90833e-014
